<?xml version="1.0" encoding="UTF-8"?>
<svg id="Layer_1" xmlns="http://www.w3.org/2000/svg" version="1.1" viewBox="0 0 100 64.7">
  <!-- Generator: Adobe Illustrator 29.0.1, SVG Export Plug-In . SVG Version: 2.1.0 Build 192)  -->
  <defs>
    <style>
      .st0 {
        fill: #ec5703;
      }
    </style>
  </defs>
  <g>
    <path class="st0" d="M57.2,33.8h6.6c.4,0,.6.4.3.7l-3.3,3.7c-.2.2-.5.2-.7,0l-3.3-3.7c-.3-.3,0-.7.3-.7Z"/>
    <path class="st0" d="M57.9,30.3V10.9c0-.2.2-.4.4-.4h4.6c.2,0,.4.2.4.4v19.4c0,.3-.2.4-.4.4h-4.6c-.2,0-.4-.2-.4-.4Z"/>
    <path class="st0" d="M63.8,7.4h-6.6c-.4,0-.6-.4-.3-.7l3.3-3.7c.2-.2.5-.2.7,0l3.3,3.7c.3.3,0,.7-.3.7Z"/>
  </g>
  <g>
    <path d="M3.6,30.3v-13.8c0-3.9,2.1-6.1,6.1-6.1h5.6c.3,0,.4.2.4.4v3.5c0,.3-.2.4-.4.4h-6.3v15.5c0,.3-.2.4-.4.4h-4.6c-.3,0-.4-.2-.4-.4Z"/>
    <path d="M37.6,24.6c0-.3.1-.4.4-.4h4.2c.3,0,.4.2.4.4.4,2,1.7,2.7,3.8,2.7s3.1-.8,3.1-2.1-.8-1.8-2.7-2.2l-2.8-.5c-4-.7-6-2.5-6-6s3-6.2,8-6.2,7.6,2,8.1,6c0,.3-.1.5-.4.5h-4.2c-.3,0-.4-.2-.5-.4-.4-1.6-1.3-2.3-3.1-2.3s-2.8.8-2.8,2.1.6,1.8,2.7,2.1l2.9.6c4.4.8,5.9,2.5,5.9,6s-3,6.3-8.3,6.3-8.5-2.3-8.9-6.4Z"/>
    <g>
      <path d="M46.1,55.5v-21.2c0-.3.2-.4.4-.4h4.6c.2,0,.4.2.4.4v23.3h3.5c.2,0,.4.2.4.4v3.1c0,.3-.2.4-.4.4h-2.9c-3.9,0-6.1-2.1-6.1-6.1Z"/>
      <path d="M57.8,61.1v-19.4c0-.3.2-.4.4-.4h4.6c.2,0,.4.2.4.4v19.4c0,.3-.2.4-.4.4h-4.6c-.3,0-.4-.2-.4-.4Z"/>
      <path d="M69.6,61.1v-15.8h-3.3c-.3,0-.4-.2-.4-.4v-3.1c0-.3.2-.4.4-.4h3.3v-1.5c0-3.9,2.1-6.1,6.1-6.1h4.1c.3,0,.4.2.4.4v3.1c0,.3-.2.4-.4.4h-4.7v3.6h4.7c.3,0,.4.2.4.4v3.1c0,.2-.2.4-.4.4h-4.7v15.8c0,.3-.2.4-.4.4h-4.6c-.2,0-.4-.2-.4-.4Z"/>
      <path d="M85.4,55.5v-10.2h-3.3c-.3,0-.4-.2-.4-.4v-3.1c0-.3.2-.4.4-.4h3.3v-5.6c0-.3.2-.4.4-.4h4.6c.3,0,.4.2.4.4v5.6h4.7c.3,0,.4.2.4.4v3.1c0,.3-.2.4-.4.4h-4.7v12.4h4.7c.3,0,.4.2.4.4v3.1c0,.3-.2.4-.4.4h-4.1c-4,0-6.1-2.1-6.1-6.1Z"/>
    </g>
    <path d="M35.6,21.7v-1.2c0-7.1-3.9-10.3-9.1-10.3s-9.8,4-9.8,10.4h0c0,6.4,3.7,10.5,9.8,10.5s8.3-2.6,9-6.5c0-.2-.1-.3-.4-.3h-3.8c-.2,0-.4,0-.5.4-.5,1.5-1.8,2.4-4.2,2.4s-4.4-1.8-4.7-4.9h13.2c.2,0,.4-.2.4-.4ZM21.9,18.9c.3-3.1,1.7-4.7,4.6-4.7s4.2,1.7,4.4,4.7h-9Z"/>
  </g>
</svg>